<?xml version="1.0" encoding="UTF-8" standalone="no"?>
<!DOCTYPE svg PUBLIC "-//W3C//DTD SVG 1.1//EN"
 "http://www.w3.org/Graphics/SVG/1.1/DTD/svg11.dtd">
<!-- Generated by graphviz version 4.0.0 (20220529.1859)
 -->
<!-- Title: FST Pages: 1 -->
<svg width="576pt" height="412pt"
 viewBox="0.00 0.00 576.00 412.42" xmlns="http://www.w3.org/2000/svg" xmlns:xlink="http://www.w3.org/1999/xlink">
<g id="graph0" class="graph" transform="scale(0.402796 0.402796) rotate(0) translate(4 1019.88)">
<title>FST</title>
<polygon fill="white" stroke="transparent" points="-4,4 -4,-1019.88 1426,-1019.88 1426,4 -4,4"/>
<!-- 0 -->
<g id="node1" class="node">
<title>0</title>
<ellipse fill="none" stroke="black" stroke-width="2" cx="29" cy="-998" rx="18" ry="18"/>
<text text-anchor="middle" x="29" y="-994.3" font-family="Times,serif" font-size="14.00">0</text>
</g>
<!-- 1 -->
<g id="node2" class="node">
<title>1</title>
<ellipse fill="none" stroke="black" cx="670" cy="-886" rx="40.11" ry="40.11"/>
<ellipse fill="none" stroke="black" cx="670" cy="-886" rx="44.09" ry="44.09"/>
<text text-anchor="middle" x="670" y="-882.3" font-family="Times,serif" font-size="14.00">1/1.66</text>
</g>
<!-- 0&#45;&gt;1 -->
<g id="edge1" class="edge">
<title>0&#45;&gt;1</title>
<path fill="none" stroke="black" d="M46.82,-993.94C129.88,-979.69 480.83,-919.46 616.32,-896.21"/>
<polygon fill="black" stroke="black" points="617.2,-899.61 626.46,-894.47 616.02,-892.71 617.2,-899.61"/>
<text text-anchor="middle" x="417" y="-950.6" font-family="Times,serif" font-size="18.00">&lt;eps&gt;:&lt;eps&gt;/0.22</text>
</g>
<!-- 2 -->
<g id="node3" class="node">
<title>2</title>
<ellipse fill="none" stroke="black" cx="703" cy="-314" rx="42.8" ry="42.8"/>
<ellipse fill="none" stroke="black" cx="703" cy="-314" rx="46.79" ry="46.79"/>
<text text-anchor="middle" x="703" y="-310.3" font-family="Times,serif" font-size="14.00">2/&#45;0.77</text>
</g>
<!-- 0&#45;&gt;2 -->
<g id="edge2" class="edge">
<title>0&#45;&gt;2</title>
<path fill="none" stroke="black" d="M22.71,-980.88C15.01,-959.69 3,-921.14 3,-887 3,-887 3,-887 3,-428 3,-363.04 478.9,-328.38 645.91,-318.22"/>
<polygon fill="black" stroke="black" points="646.22,-321.7 655.99,-317.61 645.8,-314.72 646.22,-321.7"/>
<text text-anchor="middle" x="70" y="-639.6" font-family="Times,serif" font-size="18.00">sil:&lt;eps&gt;/0.22</text>
</g>
<!-- 3 -->
<g id="node4" class="node">
<title>3</title>
<ellipse fill="none" stroke="black" cx="670" cy="-773" rx="18" ry="18"/>
<text text-anchor="middle" x="670" y="-769.3" font-family="Times,serif" font-size="14.00">3</text>
</g>
<!-- 1&#45;&gt;3 -->
<g id="edge3" class="edge">
<title>1&#45;&gt;3</title>
<path fill="none" stroke="black" d="M670,-841.45C670,-827.96 670,-813.49 670,-801.42"/>
<polygon fill="black" stroke="black" points="673.5,-801.11 670,-791.11 666.5,-801.11 673.5,-801.11"/>
<text text-anchor="middle" x="738" y="-811.6" font-family="Times,serif" font-size="18.00">b:because/1.39</text>
</g>
<!-- 8 -->
<g id="node5" class="node">
<title>8</title>
<ellipse fill="none" stroke="black" cx="979" cy="-199" rx="18" ry="18"/>
<text text-anchor="middle" x="979" y="-195.3" font-family="Times,serif" font-size="14.00">8</text>
</g>
<!-- 1&#45;&gt;8 -->
<g id="edge4" class="edge">
<title>1&#45;&gt;8</title>
<path fill="none" stroke="black" d="M714.09,-879.66C804.4,-867.49 1002,-834.02 1002,-774 1002,-774 1002,-774 1002,-313 1002,-282.62 993.92,-248.55 987.34,-225.84"/>
<polygon fill="black" stroke="black" points="990.69,-224.82 984.45,-216.26 983.99,-226.84 990.69,-224.82"/>
<text text-anchor="middle" x="1070" y="-553.6" font-family="Times,serif" font-size="18.00">k:because/1.84</text>
</g>
<!-- 2&#45;&gt;3 -->
<g id="edge5" class="edge">
<title>2&#45;&gt;3</title>
<path fill="none" stroke="black" d="M724.88,-355.65C734.21,-376.64 743,-403.03 743,-428 743,-688 743,-688 743,-688 743,-713.45 735.64,-720.74 719,-740 712.37,-747.68 703.46,-754.24 695.05,-759.38"/>
<polygon fill="black" stroke="black" points="693.21,-756.4 686.26,-764.39 696.68,-762.48 693.21,-756.4"/>
<text text-anchor="middle" x="811" y="-553.6" font-family="Times,serif" font-size="18.00">b:because/2.12</text>
</g>
<!-- 2&#45;&gt;8 -->
<g id="edge6" class="edge">
<title>2&#45;&gt;8</title>
<path fill="none" stroke="black" d="M742.16,-288.17C771.47,-270.47 813.06,-247.21 852,-232 885.14,-219.06 925.2,-209.98 951.35,-204.88"/>
<polygon fill="black" stroke="black" points="952.14,-208.3 961.32,-203 950.84,-201.42 952.14,-208.3"/>
<text text-anchor="middle" x="920" y="-237.6" font-family="Times,serif" font-size="18.00">k:because/1.47</text>
</g>
<!-- 4 -->
<g id="node6" class="node">
<title>4</title>
<ellipse fill="none" stroke="black" cx="586" cy="-687" rx="18" ry="18"/>
<text text-anchor="middle" x="586" y="-683.3" font-family="Times,serif" font-size="14.00">4</text>
</g>
<!-- 3&#45;&gt;4 -->
<g id="edge7" class="edge">
<title>3&#45;&gt;4</title>
<path fill="none" stroke="black" d="M657.61,-759.61C643.96,-745.96 621.83,-723.82 605.78,-707.77"/>
<polygon fill="black" stroke="black" points="607.99,-705.04 598.45,-700.45 603.04,-709.99 607.99,-705.04"/>
<text text-anchor="middle" x="676" y="-725.6" font-family="Times,serif" font-size="18.00">ə:&lt;eps&gt;</text>
</g>
<!-- 9 -->
<g id="node10" class="node">
<title>9</title>
<ellipse fill="none" stroke="black" cx="979" cy="-113" rx="18" ry="18"/>
<text text-anchor="middle" x="979" y="-109.3" font-family="Times,serif" font-size="14.00">9</text>
</g>
<!-- 8&#45;&gt;9 -->
<g id="edge13" class="edge">
<title>8&#45;&gt;9</title>
<path fill="none" stroke="black" d="M979,-180.6C979,-169.26 979,-154.23 979,-141.32"/>
<polygon fill="black" stroke="black" points="982.5,-141.1 979,-131.1 975.5,-141.1 982.5,-141.1"/>
<text text-anchor="middle" x="1018" y="-151.6" font-family="Times,serif" font-size="18.00">ə:&lt;eps&gt;</text>
</g>
<!-- 5 -->
<g id="node7" class="node">
<title>5</title>
<ellipse fill="none" stroke="black" cx="569" cy="-601" rx="18" ry="18"/>
<text text-anchor="middle" x="569" y="-597.3" font-family="Times,serif" font-size="14.00">5</text>
</g>
<!-- 4&#45;&gt;5 -->
<g id="edge8" class="edge">
<title>4&#45;&gt;5</title>
<path fill="none" stroke="black" d="M582.56,-669C580.22,-657.43 577.07,-641.87 574.4,-628.66"/>
<polygon fill="black" stroke="black" points="577.79,-627.79 572.38,-618.69 570.93,-629.18 577.79,-627.79"/>
<text text-anchor="middle" x="622" y="-639.6" font-family="Times,serif" font-size="18.00">kʰ:&lt;eps&gt;</text>
</g>
<!-- 6 -->
<g id="node8" class="node">
<title>6</title>
<ellipse fill="none" stroke="black" cx="560" cy="-515" rx="18" ry="18"/>
<text text-anchor="middle" x="560" y="-511.3" font-family="Times,serif" font-size="14.00">6</text>
</g>
<!-- 5&#45;&gt;6 -->
<g id="edge9" class="edge">
<title>5&#45;&gt;6</title>
<path fill="none" stroke="black" d="M567.18,-583C565.96,-571.62 564.33,-556.38 562.93,-543.31"/>
<polygon fill="black" stroke="black" points="566.37,-542.54 561.82,-532.97 559.41,-543.29 566.37,-542.54"/>
<text text-anchor="middle" x="604" y="-553.6" font-family="Times,serif" font-size="18.00">ɐ:&lt;eps&gt;</text>
</g>
<!-- 7 -->
<g id="node9" class="node">
<title>7</title>
<ellipse fill="none" stroke="black" cx="501" cy="-429" rx="18" ry="18"/>
<text text-anchor="middle" x="501" y="-425.3" font-family="Times,serif" font-size="14.00">7</text>
</g>
<!-- 6&#45;&gt;7 -->
<g id="edge10" class="edge">
<title>6&#45;&gt;7</title>
<path fill="none" stroke="black" d="M549.99,-499.75C540.93,-486.84 527.41,-467.59 516.87,-452.59"/>
<polygon fill="black" stroke="black" points="519.67,-450.49 511.06,-444.32 513.94,-454.51 519.67,-450.49"/>
<text text-anchor="middle" x="575.5" y="-467.6" font-family="Times,serif" font-size="18.00">z:&lt;eps&gt;</text>
</g>
<!-- 7&#45;&gt;1 -->
<g id="edge11" class="edge">
<title>7&#45;&gt;1</title>
<path fill="none" stroke="black" d="M483.21,-432.25C427.32,-439.81 259,-466.53 259,-514 259,-774 259,-774 259,-774 259,-847.02 503.83,-873.44 615.56,-881.7"/>
<polygon fill="black" stroke="black" points="615.4,-885.2 625.63,-882.43 615.9,-878.22 615.4,-885.2"/>
<text text-anchor="middle" x="346" y="-639.6" font-family="Times,serif" font-size="18.00">&lt;eps&gt;:&lt;eps&gt;/0.05</text>
</g>
<!-- 7&#45;&gt;2 -->
<g id="edge12" class="edge">
<title>7&#45;&gt;2</title>
<path fill="none" stroke="black" d="M516.52,-419.32C545.39,-403.17 608.48,-367.88 653.27,-342.82"/>
<polygon fill="black" stroke="black" points="655.23,-345.74 662.25,-337.8 651.81,-339.63 655.23,-345.74"/>
<text text-anchor="middle" x="656" y="-381.6" font-family="Times,serif" font-size="18.00">sil:&lt;eps&gt;/2.99</text>
</g>
<!-- 10 -->
<g id="node11" class="node">
<title>10</title>
<ellipse fill="none" stroke="black" cx="979" cy="-23" rx="23" ry="23"/>
<text text-anchor="middle" x="979" y="-19.3" font-family="Times,serif" font-size="14.00">10</text>
</g>
<!-- 9&#45;&gt;10 -->
<g id="edge14" class="edge">
<title>9&#45;&gt;10</title>
<path fill="none" stroke="black" d="M979,-94.61C979,-83.63 979,-69.09 979,-56.07"/>
<polygon fill="black" stroke="black" points="982.5,-56.04 979,-46.04 975.5,-56.04 982.5,-56.04"/>
<text text-anchor="middle" x="1017.5" y="-65.6" font-family="Times,serif" font-size="18.00">z:&lt;eps&gt;</text>
</g>
<!-- 10&#45;&gt;1 -->
<g id="edge15" class="edge">
<title>10&#45;&gt;1</title>
<path fill="none" stroke="black" d="M1001.94,-26.51C1066.99,-34.24 1248,-60.41 1248,-112 1248,-774 1248,-774 1248,-774 1248,-826.96 868.95,-866.94 724.77,-880.23"/>
<polygon fill="black" stroke="black" points="724.04,-876.78 714.4,-881.18 724.68,-883.75 724.04,-876.78"/>
<text text-anchor="middle" x="1335" y="-467.6" font-family="Times,serif" font-size="18.00">&lt;eps&gt;:&lt;eps&gt;/0.04</text>
</g>
<!-- 10&#45;&gt;2 -->
<g id="edge16" class="edge">
<title>10&#45;&gt;2</title>
<path fill="none" stroke="black" d="M961.66,-37.84C934.72,-59.67 881.69,-103.94 841,-146 803.12,-185.17 763.91,-233.49 737.02,-268.06"/>
<polygon fill="black" stroke="black" points="734.15,-266.05 730.79,-276.1 739.68,-270.34 734.15,-266.05"/>
<text text-anchor="middle" x="908" y="-151.6" font-family="Times,serif" font-size="18.00">sil:&lt;eps&gt;/3.21</text>
</g>
</g>
</svg>
