<?xml version="1.0" encoding="UTF-8" standalone="no"?>
<!-- Created with Inkscape (http://www.inkscape.org/) -->

<svg
   width="454.53772"
   height="251.69801"
   viewBox="0 0 120.2631 66.595101"
   version="1.1"
   id="svg853"
   inkscape:version="1.1 (c68e22c387, 2021-05-23)"
   sodipodi:docname="logo.svg"
   xmlns:inkscape="http://www.inkscape.org/namespaces/inkscape"
   xmlns:sodipodi="http://sodipodi.sourceforge.net/DTD/sodipodi-0.dtd"
   xmlns="http://www.w3.org/2000/svg"
   xmlns:svg="http://www.w3.org/2000/svg">
  <sodipodi:namedview
     id="namedview855"
     pagecolor="#ffffff"
     bordercolor="#666666"
     borderopacity="1.0"
     inkscape:pageshadow="2"
     inkscape:pageopacity="0"
     inkscape:pagecheckerboard="0"
     inkscape:document-units="px"
     showgrid="false"
     inkscape:snap-midpoints="true"
     units="px"
     lock-margins="false"
     fit-margin-top="10"
     fit-margin-left="20"
     fit-margin-right="20"
     fit-margin-bottom="10"
     inkscape:zoom="2.56"
     inkscape:cx="155.46875"
     inkscape:cy="91.992188"
     inkscape:window-width="2560"
     inkscape:window-height="1369"
     inkscape:window-x="1912"
     inkscape:window-y="-8"
     inkscape:window-maximized="1"
     inkscape:current-layer="layer1" />
  <defs
     id="defs850" />
  <g
     inkscape:label="MFA"
     inkscape:groupmode="layer"
     id="layer1"
     transform="translate(-87.82731,-13.623256)">
    <g
       id="g57747"
       transform="matrix(0.76090934,0,0,0.76091001,67.845336,27.140833)">
      <path
         style="fill:none;stroke:#003566;stroke-width:0.286311px;stroke-linecap:round;stroke-linejoin:miter;stroke-opacity:1"
         d="m 33.205208,39.819787 h 46.47402"
         id="path3907-5"
         inkscape:connector-curvature="0"
         inkscape:label="Horizontal" />
      <path
         style="fill:#ffc300;fill-opacity:1;stroke:#003566;stroke-width:0.264583px;stroke-linecap:butt;stroke-linejoin:miter;stroke-opacity:1"
         d="m 33.205208,39.819787 c 6.614583,0 6.614583,-13.229457 6.614583,-13.229457 0,0 0,13.229457 6.614584,13.229457 -6.614584,0 -6.614584,13.229167 -6.614584,13.229167 0,0 0,-13.229167 -6.614583,-13.229167 z"
         id="path3019"
         inkscape:connector-curvature="0"
         sodipodi:nodetypes="ccccc"
         inkscape:label="M" />
      <path
         style="fill:#ffc300;fill-opacity:1;stroke:#003566;stroke-width:0.264583px;stroke-linecap:butt;stroke-linejoin:miter;stroke-opacity:1"
         d="m 46.434374,39.819787 c 6.614584,0 13.229167,-13.229457 13.229167,-26.458332 0,13.228875 6.614583,26.458332 13.229166,26.458332 -6.614583,0 -13.229166,13.229167 -13.229166,26.458333 0,-13.229166 -6.614583,-26.458333 -13.229167,-26.458333 z"
         id="path3003"
         inkscape:connector-curvature="0"
         sodipodi:nodetypes="ccccc"
         inkscape:label="F" />
      <path
         style="fill:none;stroke:#003566;stroke-width:0.264583px;stroke-linecap:butt;stroke-linejoin:miter;stroke-opacity:1"
         d="M 74.215622,31.883322 V 47.757658"
         id="path3015"
         inkscape:connector-curvature="0"
         inkscape:label="F1" />
      <path
         style="fill:none;stroke:#003566;stroke-width:0.264583px;stroke-linecap:butt;stroke-linejoin:miter;stroke-opacity:1"
         d="M 75.538539,31.883322 V 47.757658"
         id="path3017"
         inkscape:connector-curvature="0"
         inkscape:label="F2" />
      <path
         style="fill:none;stroke:#003566;stroke-width:0.264583px;stroke-linecap:butt;stroke-linejoin:miter;stroke-opacity:1"
         d="M 79.679228,13.361454 V 66.27812"
         id="path3011"
         inkscape:connector-curvature="0"
         inkscape:label="A" />
    </g>
  </g>
  <g
     aria-label="Montreal"
     id="text29674"
     style="font-size:50.8px;font-family:'Font Awesome 5 Brands';-inkscape-font-specification:'Font Awesome 5 Brands, Normal';fill:#003566;stroke:#003566;stroke-width:1.99999"
     transform="translate(-64.348591,-5.5534689)">
    <path
       d="M 91.56647,8.7284694 H 90.023066 V 24.823972 h 1.719793 l -0.0441,-11.862165 5.291672,11.862165 h 1.278821 l 5.247578,-11.950359 v 11.950359 h 1.71979 V 8.7284694 h -1.5434 L 97.651893,22.619109 Z"
       style="font-weight:900;font-size:22.5778px;font-family:'Font Awesome 5 Free';-inkscape-font-specification:'Font Awesome 5 Free, Heavy';stroke:none"
       id="path57642" />
    <path
       d="m 108.32343,19.091327 c 0,3.571879 2.11667,5.909034 5.33577,5.909034 3.2632,0 5.37987,-2.337155 5.37987,-5.909034 0,-3.571878 -2.11667,-5.909034 -5.37987,-5.909034 -3.2191,0 -5.33577,2.337156 -5.33577,5.909034 z m 8.86355,0 c 0,2.866323 -1.23472,4.36563 -3.52778,4.36563 -2.24896,0 -3.48368,-1.499307 -3.48368,-4.36563 0,-2.778128 1.27882,-4.365629 3.48368,-4.365629 2.20487,0 3.52778,1.587501 3.52778,4.365629 z"
       style="font-weight:900;font-size:22.5778px;font-family:'Font Awesome 5 Free';-inkscape-font-specification:'Font Awesome 5 Free, Heavy';stroke:none"
       id="path57644" />
    <path
       d="m 131.65089,17.680215 c 0,-2.998615 -1.36702,-4.497922 -4.10105,-4.497922 -1.76389,0 -3.2191,0.837848 -3.92466,2.337156 l -0.17639,-2.072572 H 121.729 c 0.0882,0.97014 0.17639,2.028474 0.17639,3.219101 v 8.157994 h 1.80799 v -6.482298 c 0,-2.204864 1.41111,-3.615976 3.48368,-3.615976 1.80799,0 2.64584,0.97014 2.64584,3.042711 v 7.055563 h 1.80799 z"
       style="font-weight:900;font-size:22.5778px;font-family:'Font Awesome 5 Free';-inkscape-font-specification:'Font Awesome 5 Free, Heavy';stroke:none"
       id="path57646" />
    <path
       d="m 140.69083,13.446877 h -3.2632 V 9.9190957 l -1.80799,0.6173613 v 2.91042 h -2.20486 v 1.45521 h 2.20486 v 6.482298 c 0,2.337155 1.27882,3.615976 3.43959,3.615976 0.57326,0 1.10243,-0.0882 1.5875,-0.264584 v -1.543404 c -0.39688,0.132292 -0.79375,0.220486 -1.23472,0.220486 -1.23473,0 -1.98438,-0.617361 -1.98438,-2.293058 v -6.217714 h 3.2632 z"
       style="font-weight:900;font-size:22.5778px;font-family:'Font Awesome 5 Free';-inkscape-font-specification:'Font Awesome 5 Free, Heavy';stroke:none"
       id="path57648" />
    <path
       d="m 148.93701,13.314585 c -0.30868,-0.08819 -0.66145,-0.132292 -1.01423,-0.132292 -1.6316,0 -2.99862,0.837848 -3.57188,2.381253 l -0.17639,-2.116669 h -1.71979 c 0.0882,0.97014 0.17638,2.028474 0.17638,3.219101 v 8.157994 h 1.80799 v -6.482298 c 0,-0.97014 0.30868,-1.807988 0.79375,-2.469447 0.57327,-0.705557 1.36702,-1.058335 2.46945,-1.058335 0.44097,0 0.88195,0.0882 1.19063,0.176389 z"
       style="font-weight:900;font-size:22.5778px;font-family:'Font Awesome 5 Free';-inkscape-font-specification:'Font Awesome 5 Free, Heavy';stroke:none"
       id="path57650" />
    <path
       d="m 161.76932,18.738549 c 0,-3.439587 -1.80799,-5.556256 -4.8066,-5.556256 -3.13091,0 -5.33577,2.42535 -5.33577,5.909034 0,3.660073 2.11667,5.909034 5.68855,5.909034 1.5875,0 3.26319,-0.617362 4.27743,-1.543404 l -0.61736,-1.322918 c -1.10243,0.881945 -2.33716,1.322918 -3.66007,1.322918 -2.51355,0 -3.83647,-1.499307 -3.83647,-4.36563 h 8.29029 z m -8.24619,-0.837848 c 0.35278,-2.072572 1.54341,-3.263198 3.43959,-3.263198 1.89618,0 2.99861,1.102432 3.175,3.263198 z"
       style="font-weight:900;font-size:22.5778px;font-family:'Font Awesome 5 Free';-inkscape-font-specification:'Font Awesome 5 Free, Heavy';stroke:none"
       id="path57652" />
    <path
       d="m 172.83773,15.431254 c -0.70555,-1.411113 -2.07257,-2.248961 -3.83646,-2.248961 -2.99861,0 -5.02709,2.42535 -5.02709,5.953131 0,3.527782 1.98438,5.864937 5.02709,5.864937 1.76389,0 3.175,-0.793751 3.83646,-2.248961 v 2.072572 h 1.80799 V 13.446877 h -1.80799 z m 0,3.660073 c 0,2.778128 -1.23472,4.36563 -3.48368,4.36563 -2.24896,0 -3.52778,-1.543405 -3.52778,-4.321533 0,-2.778127 1.27882,-4.409726 3.52778,-4.409726 2.24896,0 3.48368,1.543404 3.48368,4.365629 z"
       style="font-weight:900;font-size:22.5778px;font-family:'Font Awesome 5 Free';-inkscape-font-specification:'Font Awesome 5 Free, Heavy';stroke:none"
       id="path57654" />
    <path
       d="m 179.32003,8.1993022 h -1.80799 V 24.823972 h 1.80799 z"
       style="font-weight:900;font-size:22.5778px;font-family:'Font Awesome 5 Free';-inkscape-font-specification:'Font Awesome 5 Free, Heavy';stroke:none"
       id="path57656" />
  </g>
  <g
     aria-label="Forced"
     id="text48312"
     style="font-weight:900;font-size:22.5778px;font-family:'Font Awesome 5 Free';-inkscape-font-specification:'Font Awesome 5 Free, Heavy';fill:#003566;stroke-width:1.99999"
     transform="translate(-65.348591,-5.5534689)">
    <path
       d="m 111.83697,38.498242 h 7.62883 V 36.91074 h -7.62883 v -5.556256 h 8.0698 v -1.587501 h -9.92188 v 16.095502 h 1.85208 z"
       id="path57677" />
    <path
       d="m 122.99358,40.12984 c 0,3.571879 2.11667,5.909034 5.33577,5.909034 3.2632,0 5.37987,-2.337155 5.37987,-5.909034 0,-3.571878 -2.11667,-5.909033 -5.37987,-5.909033 -3.2191,0 -5.33577,2.337155 -5.33577,5.909033 z m 8.86355,0 c 0,2.866323 -1.23472,4.36563 -3.52778,4.36563 -2.24896,0 -3.48368,-1.499307 -3.48368,-4.36563 0,-2.778127 1.27882,-4.365629 3.48368,-4.365629 2.20486,0 3.52778,1.587502 3.52778,4.365629 z"
       id="path57679" />
    <path
       d="m 142.88145,34.353098 c -0.30868,-0.08819 -0.66146,-0.132291 -1.01424,-0.132291 -1.6316,0 -2.99861,0.837848 -3.57188,2.381252 l -0.17639,-2.116669 h -1.71979 c 0.0882,0.97014 0.17639,2.028474 0.17639,3.219101 v 8.157994 h 1.80799 v -6.482298 c 0,-0.97014 0.30868,-1.807988 0.79375,-2.469447 0.57326,-0.705556 1.36701,-1.058335 2.46945,-1.058335 0.44097,0 0.88194,0.0882 1.19062,0.17639 z"
       id="path57681" />
    <path
       d="m 145.57138,40.173938 c 0,3.527781 2.11667,5.864936 5.42397,5.864936 1.5434,0 3.1309,-0.573264 4.10104,-1.499307 l -0.61736,-1.322918 c -1.14653,0.881945 -2.20486,1.278821 -3.30729,1.278821 -2.33716,0 -3.70417,-1.587502 -3.70417,-4.321532 0,-2.778128 1.36701,-4.409727 3.70417,-4.409727 1.10243,0 2.16076,0.396875 3.30729,1.322918 l 0.61736,-1.367015 c -0.92604,-0.926043 -2.46944,-1.499307 -4.01285,-1.499307 -3.35139,0 -5.51216,2.425349 -5.51216,5.953131 z"
       id="path57683" />
    <path
       d="m 167.44363,39.777062 c 0,-3.439587 -1.80799,-5.556255 -4.80661,-5.556255 -3.1309,0 -5.33577,2.425349 -5.33577,5.909033 0,3.660074 2.11667,5.909034 5.68855,5.909034 1.5875,0 3.2632,-0.617362 4.27744,-1.543404 l -0.61737,-1.322918 c -1.10243,0.881945 -2.33715,1.322918 -3.66007,1.322918 -2.51354,0 -3.83646,-1.499307 -3.83646,-4.36563 h 8.29029 z m -8.24619,-0.837848 c 0.35277,-2.072571 1.5434,-3.263198 3.43958,-3.263198 1.89619,0 2.99862,1.102432 3.17501,3.263198 z"
       id="path57685" />
    <path
       d="m 178.46794,36.42567 c -0.66146,-1.367015 -2.02847,-2.204863 -3.79236,-2.204863 -3.04271,0 -5.02709,2.337155 -5.02709,5.864936 0,3.527781 2.02847,5.953131 5.02709,5.953131 1.76389,0 3.175,-0.793751 3.83646,-2.24896 v 2.072571 h 1.80799 v -16.62467 h -1.85209 z m 0.0441,3.70417 c 0,2.778128 -1.23472,4.36563 -3.48368,4.36563 -2.24896,0 -3.52778,-1.631599 -3.52778,-4.409727 0,-2.73403 1.27882,-4.321532 3.52778,-4.321532 2.24896,0 3.48368,1.587502 3.48368,4.365629 z"
       id="path57687" />
  </g>
  <g
     aria-label="Aligner"
     id="text50722"
     style="font-weight:900;font-size:22.5778px;font-family:'Font Awesome 5 Free';-inkscape-font-specification:'Font Awesome 5 Free, Heavy';fill:#003566;stroke-width:1.99999"
     transform="translate(-65.348591,-5.5534689)">
    <path
       d="m 115.62934,48.380142 h -1.6316 l -7.05556,16.095502 h 1.94028 l 1.76389,-4.145143 h 8.42258 l 1.76389,4.145143 h 1.89618 z m 2.77813,10.406955 h -7.09966 l 3.52778,-8.246189 z"
       id="path57708" />
    <path
       d="m 126.69775,47.850975 h -1.80798 v 16.624669 h 1.80798 z"
       id="path57710" />
    <path
       d="m 132.25401,50.364519 v -2.072572 h -2.20486 v 2.072572 z m -0.22049,2.73403 h -1.80798 v 11.377095 h 1.80798 z"
       id="path57712" />
    <path
       d="m 143.89569,55.082926 c -0.70556,-1.411112 -2.07257,-2.24896 -3.88056,-2.24896 -3.04271,0 -5.07119,2.293058 -5.07119,5.64445 0,3.39549 2.02848,5.64445 5.07119,5.64445 1.80799,0 3.175,-0.837848 3.88056,-2.24896 v 2.689933 c 0,2.24896 -1.10243,3.439587 -3.3073,3.439587 -1.5434,0 -2.68993,-0.352778 -4.14514,-1.146529 l -0.30868,1.499307 c 1.23472,0.749653 2.73403,1.146529 4.45382,1.146529 3.35139,0 5.11529,-1.763891 5.11529,-5.115283 V 53.098549 h -1.80799 z m 0,3.39549 c 0,2.557641 -1.32292,4.145143 -3.52778,4.145143 -2.24896,0 -3.57188,-1.587502 -3.57188,-4.145143 0,-2.557642 1.32292,-4.101046 3.57188,-4.101046 2.20486,0 3.52778,1.543404 3.52778,4.101046 z"
       id="path57714" />
    <path
       d="m 158.31549,57.331887 c 0,-2.998614 -1.36701,-4.497921 -4.10104,-4.497921 -1.76389,0 -3.2191,0.837848 -3.92466,2.337155 l -0.17639,-2.072572 h -1.71979 c 0.0882,0.97014 0.17639,2.028475 0.17639,3.219101 v 8.157994 h 1.80799 v -6.482298 c 0,-2.204863 1.41111,-3.615976 3.48368,-3.615976 1.80799,0 2.64584,0.97014 2.64584,3.042712 v 7.055562 h 1.80798 z"
       id="path57716" />
    <path
       d="m 171.1478,58.390221 c 0,-3.439586 -1.80799,-5.556255 -4.8066,-5.556255 -3.13091,0 -5.33577,2.425349 -5.33577,5.909034 0,3.660073 2.11667,5.909033 5.68855,5.909033 1.5875,0 3.26319,-0.617361 4.27743,-1.543404 l -0.61736,-1.322918 c -1.10243,0.881945 -2.33716,1.322918 -3.66007,1.322918 -2.51355,0 -3.83647,-1.499307 -3.83647,-4.365629 h 8.29029 z m -8.24619,-0.837848 c 0.35278,-2.072571 1.5434,-3.263197 3.43959,-3.263197 1.89618,0 2.99861,1.102431 3.175,3.263197 z"
       id="path57718" />
    <path
       d="m 180.32003,52.966258 c -0.30868,-0.0882 -0.66146,-0.132292 -1.01424,-0.132292 -1.6316,0 -2.99861,0.837848 -3.57188,2.381252 l -0.17639,-2.116669 h -1.71979 c 0.0882,0.97014 0.17639,2.028475 0.17639,3.219101 v 8.157994 h 1.80799 v -6.482298 c 0,-0.97014 0.30868,-1.807988 0.79375,-2.469447 0.57326,-0.705556 1.36701,-1.058334 2.46945,-1.058334 0.44097,0 0.88194,0.08819 1.19062,0.176389 z"
       id="path57720" />
  </g>
</svg>
