<?xml version="1.0" encoding="UTF-8" standalone="no"?>
<!DOCTYPE svg PUBLIC "-//W3C//DTD SVG 1.1//EN"
 "http://www.w3.org/Graphics/SVG/1.1/DTD/svg11.dtd">
<!-- Generated by graphviz version 4.0.0 (20220529.1859)
 -->
<!-- Title: FST Pages: 1 -->
<svg width="576pt" height="306pt"
 viewBox="0.00 0.00 576.00 305.50" xmlns="http://www.w3.org/2000/svg" xmlns:xlink="http://www.w3.org/1999/xlink">
<g id="graph0" class="graph" transform="scale(0.398892 0.398892) rotate(0) translate(4 761.88)">
<title>FST</title>
<polygon fill="white" stroke="transparent" points="-4,4 -4,-761.88 1440,-761.88 1440,4 -4,4"/>
<!-- 0 -->
<g id="node1" class="node">
<title>0</title>
<ellipse fill="none" stroke="black" stroke-width="2" cx="701" cy="-714" rx="40.11" ry="40.11"/>
<ellipse fill="none" stroke="black" stroke-width="2" cx="701" cy="-714" rx="44.09" ry="44.09"/>
<text text-anchor="middle" x="701" y="-710.3" font-family="Times,serif" font-size="14.00">0/1.66</text>
</g>
<!-- 2 -->
<g id="node2" class="node">
<title>2</title>
<ellipse fill="none" stroke="black" cx="614" cy="-601" rx="18" ry="18"/>
<text text-anchor="middle" x="614" y="-597.3" font-family="Times,serif" font-size="14.00">2</text>
</g>
<!-- 0&#45;&gt;2 -->
<g id="edge1" class="edge">
<title>0&#45;&gt;2</title>
<path fill="none" stroke="black" d="M673.95,-678.49C659.89,-660.55 643.15,-639.19 630.93,-623.6"/>
<polygon fill="black" stroke="black" points="633.58,-621.31 624.66,-615.6 628.07,-625.63 633.58,-621.31"/>
<text text-anchor="middle" x="694" y="-639.6" font-family="Times,serif" font-size="18.00">l:lot/2.79</text>
</g>
<!-- 5 -->
<g id="node3" class="node">
<title>5</title>
<ellipse fill="none" stroke="black" cx="620" cy="-199" rx="18" ry="18"/>
<text text-anchor="middle" x="620" y="-195.3" font-family="Times,serif" font-size="14.00">5</text>
</g>
<!-- 0&#45;&gt;5 -->
<g id="edge2" class="edge">
<title>0&#45;&gt;5</title>
<path fill="none" stroke="black" d="M656.64,-709.79C554.42,-701.18 311,-673.19 311,-602 311,-602 311,-602 311,-313 311,-253.52 515.49,-216.03 591.77,-204.12"/>
<polygon fill="black" stroke="black" points="592.69,-207.52 602.05,-202.55 591.64,-200.6 592.69,-207.52"/>
<text text-anchor="middle" x="352" y="-467.6" font-family="Times,serif" font-size="18.00">l:lot/1.48</text>
</g>
<!-- 8 -->
<g id="node4" class="node">
<title>8</title>
<ellipse fill="none" stroke="black" cx="1053" cy="-199" rx="18" ry="18"/>
<text text-anchor="middle" x="1053" y="-195.3" font-family="Times,serif" font-size="14.00">8</text>
</g>
<!-- 0&#45;&gt;8 -->
<g id="edge3" class="edge">
<title>0&#45;&gt;8</title>
<path fill="none" stroke="black" d="M745.21,-709.87C847.72,-701.39 1093,-673.62 1093,-602 1093,-602 1093,-602 1093,-313 1093,-280.73 1078.33,-246.1 1066.75,-223.8"/>
<polygon fill="black" stroke="black" points="1069.71,-221.9 1061.88,-214.76 1063.54,-225.22 1069.71,-221.9"/>
<text text-anchor="middle" x="1137" y="-467.6" font-family="Times,serif" font-size="18.00">l:lot/&#45;0.01</text>
</g>
<!-- 3 -->
<g id="node6" class="node">
<title>3</title>
<ellipse fill="none" stroke="black" cx="627" cy="-515" rx="18" ry="18"/>
<text text-anchor="middle" x="627" y="-511.3" font-family="Times,serif" font-size="14.00">3</text>
</g>
<!-- 2&#45;&gt;3 -->
<g id="edge7" class="edge">
<title>2&#45;&gt;3</title>
<path fill="none" stroke="black" d="M616.63,-583C618.41,-571.5 620.8,-556.07 622.83,-542.92"/>
<polygon fill="black" stroke="black" points="626.3,-543.39 624.37,-532.97 619.38,-542.32 626.3,-543.39"/>
<text text-anchor="middle" x="662.5" y="-553.6" font-family="Times,serif" font-size="18.00">ɑ:&lt;eps&gt;</text>
</g>
<!-- 6 -->
<g id="node8" class="node">
<title>6</title>
<ellipse fill="none" stroke="black" cx="530" cy="-113" rx="18" ry="18"/>
<text text-anchor="middle" x="530" y="-109.3" font-family="Times,serif" font-size="14.00">6</text>
</g>
<!-- 5&#45;&gt;6 -->
<g id="edge11" class="edge">
<title>5&#45;&gt;6</title>
<path fill="none" stroke="black" d="M607.11,-185.96C592.27,-172.12 567.72,-149.2 550.31,-132.95"/>
<polygon fill="black" stroke="black" points="552.57,-130.28 542.87,-126.01 547.79,-135.39 552.57,-130.28"/>
<text text-anchor="middle" x="625.5" y="-151.6" font-family="Times,serif" font-size="18.00">ɑ:&lt;eps&gt;</text>
</g>
<!-- 9 -->
<g id="node10" class="node">
<title>9</title>
<ellipse fill="none" stroke="black" cx="1053" cy="-113" rx="18" ry="18"/>
<text text-anchor="middle" x="1053" y="-109.3" font-family="Times,serif" font-size="14.00">9</text>
</g>
<!-- 8&#45;&gt;9 -->
<g id="edge15" class="edge">
<title>8&#45;&gt;9</title>
<path fill="none" stroke="black" d="M1053,-180.6C1053,-169.26 1053,-154.23 1053,-141.32"/>
<polygon fill="black" stroke="black" points="1056.5,-141.1 1053,-131.1 1049.5,-141.1 1056.5,-141.1"/>
<text text-anchor="middle" x="1092.5" y="-151.6" font-family="Times,serif" font-size="18.00">ɑ:&lt;eps&gt;</text>
</g>
<!-- 1 -->
<g id="node5" class="node">
<title>1</title>
<ellipse fill="none" stroke="black" cx="632" cy="-314" rx="42.8" ry="42.8"/>
<ellipse fill="none" stroke="black" cx="632" cy="-314" rx="46.79" ry="46.79"/>
<text text-anchor="middle" x="632" y="-310.3" font-family="Times,serif" font-size="14.00">1/&#45;0.77</text>
</g>
<!-- 1&#45;&gt;2 -->
<g id="edge4" class="edge">
<title>1&#45;&gt;2</title>
<path fill="none" stroke="black" d="M605.13,-352.45C586.41,-380.95 563.08,-421.96 553,-462 541.98,-505.78 573.45,-553.16 595.19,-579.45"/>
<polygon fill="black" stroke="black" points="592.67,-581.89 601.84,-587.21 597.99,-577.34 592.67,-581.89"/>
<text text-anchor="middle" x="594" y="-467.6" font-family="Times,serif" font-size="18.00">l:lot/2.98</text>
</g>
<!-- 1&#45;&gt;5 -->
<g id="edge5" class="edge">
<title>1&#45;&gt;5</title>
<path fill="none" stroke="black" d="M627.12,-267.04C625.69,-253.57 624.17,-239.26 622.9,-227.35"/>
<polygon fill="black" stroke="black" points="626.36,-226.74 621.82,-217.16 619.4,-227.48 626.36,-226.74"/>
<text text-anchor="middle" x="667" y="-237.6" font-family="Times,serif" font-size="18.00">l:lot/1.14</text>
</g>
<!-- 1&#45;&gt;8 -->
<g id="edge6" class="edge">
<title>1&#45;&gt;8</title>
<path fill="none" stroke="black" d="M677.05,-300.91C764.42,-277.46 954.49,-226.44 1025.51,-207.38"/>
<polygon fill="black" stroke="black" points="1026.72,-210.68 1035.47,-204.7 1024.91,-203.92 1026.72,-210.68"/>
<text text-anchor="middle" x="969" y="-237.6" font-family="Times,serif" font-size="18.00">l:lot/1.08</text>
</g>
<!-- 4 -->
<g id="node7" class="node">
<title>4</title>
<ellipse fill="none" stroke="black" cx="657" cy="-429" rx="18" ry="18"/>
<text text-anchor="middle" x="657" y="-425.3" font-family="Times,serif" font-size="14.00">4</text>
</g>
<!-- 3&#45;&gt;4 -->
<g id="edge8" class="edge">
<title>3&#45;&gt;4</title>
<path fill="none" stroke="black" d="M632.78,-497.8C637.02,-485.95 642.85,-469.62 647.73,-455.96"/>
<polygon fill="black" stroke="black" points="651.17,-456.74 651.23,-446.15 644.57,-454.39 651.17,-456.74"/>
<text text-anchor="middle" x="683.5" y="-467.6" font-family="Times,serif" font-size="18.00">t:&lt;eps&gt;</text>
</g>
<!-- 4&#45;&gt;0 -->
<g id="edge9" class="edge">
<title>4&#45;&gt;0</title>
<path fill="none" stroke="black" d="M674.71,-433.18C690.69,-437.05 713.41,-445.27 725,-462 846.38,-637.13 755.31,-598.54 739,-654 737.45,-659.26 735.28,-664.49 732.74,-669.55"/>
<polygon fill="black" stroke="black" points="729.61,-667.97 727.84,-678.42 735.74,-671.36 729.61,-667.97"/>
<text text-anchor="middle" x="870" y="-553.6" font-family="Times,serif" font-size="18.00">&lt;eps&gt;:&lt;eps&gt;/0.16</text>
</g>
<!-- 4&#45;&gt;1 -->
<g id="edge10" class="edge">
<title>4&#45;&gt;1</title>
<path fill="none" stroke="black" d="M653.31,-411.33C650.86,-400.25 647.49,-385.01 644.15,-369.92"/>
<polygon fill="black" stroke="black" points="647.55,-369.08 641.97,-360.08 640.72,-370.6 647.55,-369.08"/>
<text text-anchor="middle" x="717" y="-381.6" font-family="Times,serif" font-size="18.00">sil:&lt;eps&gt;/1.89</text>
</g>
<!-- 7 -->
<g id="node9" class="node">
<title>7</title>
<ellipse fill="none" stroke="black" cx="362" cy="-23" rx="18" ry="18"/>
<text text-anchor="middle" x="362" y="-19.3" font-family="Times,serif" font-size="14.00">7</text>
</g>
<!-- 6&#45;&gt;7 -->
<g id="edge12" class="edge">
<title>6&#45;&gt;7</title>
<path fill="none" stroke="black" d="M514.19,-103.72C484.93,-88.39 422.09,-55.47 387,-37.09"/>
<polygon fill="black" stroke="black" points="388.37,-33.86 377.89,-32.32 385.12,-40.06 388.37,-33.86"/>
<text text-anchor="middle" x="504" y="-65.6" font-family="Times,serif" font-size="18.00">ɾ:&lt;eps&gt;</text>
</g>
<!-- 7&#45;&gt;0 -->
<g id="edge13" class="edge">
<title>7&#45;&gt;0</title>
<path fill="none" stroke="black" d="M344.05,-24.46C271,-26.81 0,-40.37 0,-112 0,-602 0,-602 0,-602 0,-667.33 481.16,-700.6 646.21,-710.09"/>
<polygon fill="black" stroke="black" points="646.44,-713.61 656.62,-710.68 646.83,-706.62 646.44,-713.61"/>
<text text-anchor="middle" x="87" y="-381.6" font-family="Times,serif" font-size="18.00">&lt;eps&gt;:&lt;eps&gt;/0.04</text>
</g>
<!-- 7&#45;&gt;1 -->
<g id="edge14" class="edge">
<title>7&#45;&gt;1</title>
<path fill="none" stroke="black" d="M366.6,-40.86C374.94,-69.13 394.77,-126.86 427,-166 470.2,-218.45 536.34,-261.32 581.74,-286.96"/>
<polygon fill="black" stroke="black" points="580.09,-290.04 590.53,-291.85 583.5,-283.93 580.09,-290.04"/>
<text text-anchor="middle" x="494" y="-151.6" font-family="Times,serif" font-size="18.00">sil:&lt;eps&gt;/3.21</text>
</g>
<!-- 10 -->
<g id="node11" class="node">
<title>10</title>
<ellipse fill="none" stroke="black" cx="1053" cy="-23" rx="23" ry="23"/>
<text text-anchor="middle" x="1053" y="-19.3" font-family="Times,serif" font-size="14.00">10</text>
</g>
<!-- 9&#45;&gt;10 -->
<g id="edge16" class="edge">
<title>9&#45;&gt;10</title>
<path fill="none" stroke="black" d="M1053,-94.61C1053,-83.63 1053,-69.09 1053,-56.07"/>
<polygon fill="black" stroke="black" points="1056.5,-56.04 1053,-46.04 1049.5,-56.04 1056.5,-56.04"/>
<text text-anchor="middle" x="1091.5" y="-65.6" font-family="Times,serif" font-size="18.00">ʔ:&lt;eps&gt;</text>
</g>
<!-- 10&#45;&gt;0 -->
<g id="edge17" class="edge">
<title>10&#45;&gt;0</title>
<path fill="none" stroke="black" d="M1075.76,-23.48C1129.93,-23.53 1262,-31.88 1262,-112 1262,-602 1262,-602 1262,-602 1262,-704.55 896.69,-713.87 755.65,-713.65"/>
<polygon fill="black" stroke="black" points="755.5,-710.15 745.49,-713.62 755.48,-717.15 755.5,-710.15"/>
<text text-anchor="middle" x="1349" y="-381.6" font-family="Times,serif" font-size="18.00">&lt;eps&gt;:&lt;eps&gt;/0.06</text>
</g>
<!-- 10&#45;&gt;1 -->
<g id="edge18" class="edge">
<title>10&#45;&gt;1</title>
<path fill="none" stroke="black" d="M1034.32,-36.82C972.14,-79.5 770.87,-217.67 678.78,-280.89"/>
<polygon fill="black" stroke="black" points="676.74,-278.04 670.48,-286.59 680.7,-283.81 676.74,-278.04"/>
<text text-anchor="middle" x="938" y="-151.6" font-family="Times,serif" font-size="18.00">sil:&lt;eps&gt;/2.81</text>
</g>
</g>
</svg>
