<?xml version="1.0" encoding="UTF-8" standalone="no"?>
<!DOCTYPE svg PUBLIC "-//W3C//DTD SVG 1.1//EN"
 "http://www.w3.org/Graphics/SVG/1.1/DTD/svg11.dtd">
<!-- Generated by graphviz version 3.0.0 (20220315.2325)
 -->
<!-- Title: FST Pages: 1 -->
<svg width="612pt" height="77pt"
 viewBox="0.00 0.00 612.00 76.53" xmlns="http://www.w3.org/2000/svg" xmlns:xlink="http://www.w3.org/1999/xlink">
<g id="graph0" class="graph" transform="scale(0.131201 0.131201) rotate(0) translate(4 579.28)">
<title>FST</title>
<polygon fill="white" stroke="transparent" points="-4,4 -4,-579.28 4660.6,-579.28 4660.6,4 -4,4"/>
<!-- 0 -->
<g id="node1" class="node">
<title>0</title>
<ellipse fill="none" stroke="black" stroke-width="2" cx="178.66" cy="-178.66" rx="174.81" ry="174.81"/>
<ellipse fill="none" stroke="black" stroke-width="2" cx="178.66" cy="-178.66" rx="178.81" ry="178.81"/>
<text text-anchor="middle" x="178.66" y="-160.56" font-family="Times,serif" font-size="72.00">0/1.66</text>
</g>
<!-- 2 -->
<g id="node2" class="node">
<title>2</title>
<ellipse fill="none" stroke="black" cx="1108.31" cy="-360.66" rx="61.54" ry="61.54"/>
<text text-anchor="middle" x="1108.31" y="-342.56" font-family="Times,serif" font-size="72.00">2</text>
</g>
<!-- 0&#45;&gt;2 -->
<g id="edge1" class="edge">
<title>0&#45;&gt;2</title>
<path fill="none" stroke="black" d="M354.14,-212.89C560.44,-253.36 893.88,-318.78 1037.66,-346.99"/>
<polygon fill="black" stroke="black" points="1037.2,-350.47 1047.68,-348.96 1038.55,-343.6 1037.2,-350.47"/>
<text text-anchor="middle" x="557.81" y="-309.06" font-family="Times,serif" font-size="72.00">ð:the/2.39</text>
</g>
<!-- 4 -->
<g id="node3" class="node">
<title>4</title>
<ellipse fill="none" stroke="black" cx="3944.56" cy="-169.66" rx="61.54" ry="61.54"/>
<text text-anchor="middle" x="3944.56" y="-151.56" font-family="Times,serif" font-size="72.00">4</text>
</g>
<!-- 0&#45;&gt;4 -->
<g id="edge2" class="edge">
<title>0&#45;&gt;4</title>
<path fill="none" stroke="black" d="M357.31,-170.17C362.37,-169.99 367.37,-169.82 372.31,-169.66 698.86,-158.92 780.58,-155.66 1107.31,-155.66 1107.31,-155.66 1107.31,-155.66 3078.94,-155.66 3373.81,-155.66 3725.17,-163.9 3872.76,-167.73"/>
<polygon fill="black" stroke="black" points="3872.94,-171.24 3883.03,-168 3873.13,-164.24 3872.94,-171.24"/>
<text text-anchor="middle" x="1966.81" y="-177.06" font-family="Times,serif" font-size="72.00">ð:the/0.25</text>
</g>
<!-- 3 -->
<g id="node5" class="node">
<title>3</title>
<ellipse fill="none" stroke="black" cx="1966.81" cy="-314.66" rx="61.54" ry="61.54"/>
<text text-anchor="middle" x="1966.81" y="-296.56" font-family="Times,serif" font-size="72.00">3</text>
</g>
<!-- 2&#45;&gt;3 -->
<g id="edge5" class="edge">
<title>2&#45;&gt;3</title>
<path fill="none" stroke="black" d="M1169.37,-351.99C1241.4,-342.03 1365.88,-326.23 1473.31,-319.66 1623.18,-310.48 1799.18,-311.54 1894.94,-313.11"/>
<polygon fill="black" stroke="black" points="1895.03,-316.61 1905.08,-313.28 1895.14,-309.61 1895.03,-316.61"/>
<text text-anchor="middle" x="1619.81" y="-341.06" font-family="Times,serif" font-size="72.00">i:&lt;eps&gt;</text>
</g>
<!-- 5 -->
<g id="node6" class="node">
<title>5</title>
<ellipse fill="none" stroke="black" cx="4595.08" cy="-169.66" rx="61.54" ry="61.54"/>
<text text-anchor="middle" x="4595.08" y="-151.56" font-family="Times,serif" font-size="72.00">5</text>
</g>
<!-- 4&#45;&gt;5 -->
<g id="edge8" class="edge">
<title>4&#45;&gt;5</title>
<path fill="none" stroke="black" d="M4006.28,-169.66C4126.61,-169.66 4394.78,-169.66 4523.06,-169.66"/>
<polygon fill="black" stroke="black" points="4523.16,-173.16 4533.16,-169.66 4523.16,-166.16 4523.16,-173.16"/>
<text text-anchor="middle" x="4362.06" y="-191.06" font-family="Times,serif" font-size="72.00">ə:&lt;eps&gt;</text>
</g>
<!-- 1 -->
<g id="node4" class="node">
<title>1</title>
<ellipse fill="none" stroke="black" cx="3077.94" cy="-379.66" rx="191.75" ry="191.75"/>
<ellipse fill="none" stroke="black" cx="3077.94" cy="-379.66" rx="195.75" ry="195.75"/>
<text text-anchor="middle" x="3077.94" y="-361.56" font-family="Times,serif" font-size="72.00">1/&#45;0.77</text>
</g>
<!-- 1&#45;&gt;2 -->
<g id="edge3" class="edge">
<title>1&#45;&gt;2</title>
<path fill="none" stroke="black" d="M2883.1,-397.86C2877.79,-398.15 2872.51,-398.42 2867.31,-398.66 2248.39,-426.65 2092.03,-430.86 1473.31,-398.66 1370.74,-393.32 1252.57,-379.57 1179.4,-370.16"/>
<polygon fill="black" stroke="black" points="1179.75,-366.68 1169.38,-368.86 1178.85,-373.62 1179.75,-366.68"/>
<text text-anchor="middle" x="1966.81" y="-442.06" font-family="Times,serif" font-size="72.00">ð:the/0.63</text>
</g>
<!-- 1&#45;&gt;4 -->
<g id="edge4" class="edge">
<title>1&#45;&gt;4</title>
<path fill="none" stroke="black" d="M3245.74,-278.67C3259.94,-272.27 3274.32,-266.47 3288.56,-261.66 3492.82,-192.57 3749.84,-175.34 3872.32,-171.06"/>
<polygon fill="black" stroke="black" points="3872.81,-174.54 3882.68,-170.71 3872.57,-167.55 3872.81,-174.54"/>
<text text-anchor="middle" x="3486.06" y="-283.06" font-family="Times,serif" font-size="72.00">ð:the/&#45;1.46</text>
</g>
<!-- 3&#45;&gt;0 -->
<g id="edge6" class="edge">
<title>3&#45;&gt;0</title>
<path fill="none" stroke="black" d="M1906.98,-299.05C1812.97,-274.93 1622.73,-229.41 1458.31,-210.66 1072.73,-166.67 617.69,-167.83 367.73,-172.99"/>
<polygon fill="black" stroke="black" points="367.37,-169.5 357.45,-173.21 367.52,-176.5 367.37,-169.5"/>
<text text-anchor="middle" x="1108.31" y="-232.06" font-family="Times,serif" font-size="72.00">&lt;eps&gt;:&lt;eps&gt;/0.01</text>
</g>
<!-- 3&#45;&gt;1 -->
<g id="edge7" class="edge">
<title>3&#45;&gt;1</title>
<path fill="none" stroke="black" d="M2028.23,-309.35C2173.65,-297.8 2554.27,-274.85 2867.31,-319.66 2871.58,-320.27 2875.88,-320.94 2880.21,-321.67"/>
<polygon fill="black" stroke="black" points="2879.88,-325.17 2890.34,-323.49 2881.12,-318.28 2879.88,-325.17"/>
<text text-anchor="middle" x="2517.31" y="-341.06" font-family="Times,serif" font-size="72.00">sil:&lt;eps&gt;/4.6</text>
</g>
<!-- 5&#45;&gt;0 -->
<g id="edge9" class="edge">
<title>5&#45;&gt;0</title>
<path fill="none" stroke="black" d="M4535.61,-153.25C4422.59,-123.04 4165.85,-61.66 3945.56,-61.66 1107.31,-61.66 1107.31,-61.66 1107.31,-61.66 847.77,-61.66 550.56,-107.3 363.99,-141.56"/>
<polygon fill="black" stroke="black" points="363.28,-138.14 354.08,-143.39 364.55,-145.02 363.28,-138.14"/>
<text text-anchor="middle" x="2517.31" y="-83.06" font-family="Times,serif" font-size="72.00">&lt;eps&gt;:&lt;eps&gt;/0.01</text>
</g>
<!-- 5&#45;&gt;1 -->
<g id="edge10" class="edge">
<title>5&#45;&gt;1</title>
<path fill="none" stroke="black" d="M4558.96,-219.97C4547.56,-232.68 4533.86,-244.91 4518.56,-252.66 4185.65,-421.25 4055.39,-309.08 3683.56,-340.66 3550.53,-351.95 3400.78,-361.63 3283.6,-368.52"/>
<polygon fill="black" stroke="black" points="3283.22,-365.04 3273.44,-369.12 3283.63,-372.03 3283.22,-365.04"/>
<text text-anchor="middle" x="3944.56" y="-369.06" font-family="Times,serif" font-size="72.00">sil:&lt;eps&gt;/4.6</text>
</g>
</g>
</svg>
